#N canvas 2856 28 259 371 10;
#X obj 69 63 inlet;
#X obj 69 312 outlet;
#X obj 69 93 list length;
#N canvas 2869 109 329 281 rate 0;
#X obj 41 223 outlet;
#X obj 124 33 inlet start;
#X obj 209 34 inlet stop;
#X obj 41 33 inlet value;
#X obj 41 113 spigot 0;
#N canvas 2895 22 296 320 sum 0;
#X obj 76 55 inlet;
#X obj 61 230 outlet;
#X obj 76 165 +;
#X obj 61 198 f;
#X obj 108 165 t f;
#X msg 153 110 0;
#X obj 126 56 inlet;
#X obj 126 84 t b b;
#X connect 0 0 2 0;
#X connect 2 0 4 0;
#X connect 2 0 3 1;
#X connect 3 0 1 0;
#X connect 4 0 2 1;
#X connect 5 0 2 1;
#X connect 6 0 7 0;
#X connect 7 0 3 0;
#X connect 7 1 5 0;
#X restore 41 141 pd sum;
#X obj 41 193 /;
#X obj 124 160 timer;
#X obj 41 164 * 1000;
#X obj 124 58 t b b;
#X msg 124 85 1;
#X msg 165 85 0;
#X obj 209 58 t b b b;
#X connect 1 0 9 0;
#X connect 2 0 12 0;
#X connect 3 0 4 0;
#X connect 4 0 5 0;
#X connect 5 0 8 0;
#X connect 6 0 0 0;
#X connect 7 0 6 1;
#X connect 8 0 6 0;
#X connect 9 0 10 0;
#X connect 9 1 7 0;
#X connect 10 0 4 1;
#X connect 11 0 4 1;
#X connect 12 0 5 1;
#X connect 12 1 11 0;
#X connect 12 2 7 1;
#X restore 69 250 pd rate;
#X obj 69 274 * 8;
#X obj 88 208 t b b;
#X msg 88 161 1;
#X obj 88 138 loadbang;
#X obj 184 64 inlet;
#X obj 88 184 metro \$1;
#X connect 0 0 2 0;
#X connect 2 0 3 0;
#X connect 3 0 4 0;
#X connect 4 0 1 0;
#X connect 5 0 3 1;
#X connect 5 1 3 2;
#X connect 6 0 9 0;
#X connect 7 0 6 0;
#X connect 8 0 9 1;
#X connect 9 0 5 0;
