#N canvas 913 459 349 375 10;
#X obj 110 27 r opus-packet;
#X obj 110 315 dac~;
#X obj 160 104 tgl 15 0 empty empty drop_even_packets 17 7 0 10 -262144
-1 -1 0 1;
#X obj 135 68 bng 15 250 50 0 empty empty drop_one_packet 17 7 0 10
-262144 -1 -1;
#X obj 110 272 opusdec~ 60;
#X msg 301 138 0;
#X msg 301 159 5;
#X msg 301 180 10;
#X msg 301 201 20;
#X msg 301 222 30;
#X msg 301 243 50;
#N canvas 796 79 438 337 lossmodels 0;
#X obj 133 32 inlet drop1;
#X obj 37 32 inlet packets;
#X obj 306 32 inlet loss;
#N canvas 2487 22 305 326 oneLoss 0;
#X obj 76 58 inlet;
#X obj 76 261 outlet;
#X obj 149 58 inlet;
#X obj 121 180 == 0;
#X obj 76 206 spigot 1;
#X obj 134 206 spigot 0;
#X obj 121 152 f 0;
#X obj 76 85 t a b;
#X msg 121 108 1;
#X msg 154 108 0;
#X obj 134 230 t b b;
#X connect 0 0 7 0;
#X connect 2 0 8 0;
#X connect 3 0 4 1;
#X connect 4 0 1 0;
#X connect 5 0 10 0;
#X connect 6 0 3 0;
#X connect 6 0 5 1;
#X connect 7 0 4 0;
#X connect 7 1 5 0;
#X connect 8 0 6 0;
#X connect 9 0 6 0;
#X connect 10 0 1 0;
#X connect 10 1 9 0;
#X restore 37 94 pd oneLoss;
#X obj 333 141 s \$0-reset;
#X obj 133 56 t b b;
#X obj 216 56 t f b;
#X obj 306 55 t f b;
#X obj 216 32 inlet lossAlt;
#N canvas 2891 387 261 240 loss50 0;
#X obj 88 24 inlet;
#X obj 88 201 outlet;
#X obj 133 84 tgl 15 0 empty empty empty 17 7 0 10 -262144 -1 -1 0
1;
#X obj 133 134 == 0;
#X obj 88 56 t a b b;
#X obj 88 160 spigot 1;
#X obj 146 160 spigot 0;
#X obj 157 24 inlet;
#X obj 133 106 * 0;
#X connect 0 0 4 0;
#X connect 2 0 8 0;
#X connect 3 0 5 1;
#X connect 4 0 5 0;
#X connect 4 1 6 0;
#X connect 4 2 2 0;
#X connect 5 0 1 0;
#X connect 6 0 1 0;
#X connect 7 0 8 1;
#X connect 8 0 3 0;
#X connect 8 0 6 1;
#X restore 37 172 pd loss50;
#X obj 88 124 r \$0-reset;
#X msg 88 147 0;
#N canvas 165 55 182 262 loss 0;
#X obj 34 38 inlet;
#X obj 100 38 inlet;
#X obj 34 64 t a b;
#X obj 61 96 random 10000;
#X obj 34 173 spigot;
#X obj 61 146 t f f;
#X obj 88 173 route 0;
#X obj 34 209 outlet;
#X obj 100 64 * 100;
#X obj 61 122 >= 0;
#X connect 0 0 2 0;
#X connect 1 0 8 0;
#X connect 2 0 4 0;
#X connect 2 1 3 0;
#X connect 3 0 9 0;
#X connect 4 0 7 0;
#X connect 5 0 4 1;
#X connect 5 1 6 0;
#X connect 6 0 7 0;
#X connect 8 0 9 1;
#X connect 9 0 5 0;
#X restore 37 247 pd loss;
#X obj 76 201 r \$0-reset;
#X msg 76 224 0;
#X obj 37 282 outlet;
#X obj 306 279 outlet;
#X obj 326 215 r \$0-reset;
#X msg 326 238 0;
#X obj 216 239 * 50;
#X connect 0 0 5 0;
#X connect 1 0 3 0;
#X connect 2 0 7 0;
#X connect 3 0 9 0;
#X connect 5 0 3 1;
#X connect 5 1 4 0;
#X connect 6 0 9 1;
#X connect 6 0 19 0;
#X connect 6 1 4 0;
#X connect 7 0 12 1;
#X connect 7 0 16 0;
#X connect 7 1 4 0;
#X connect 8 0 6 0;
#X connect 9 0 12 0;
#X connect 10 0 11 0;
#X connect 11 0 9 1;
#X connect 12 0 15 0;
#X connect 13 0 14 0;
#X connect 14 0 12 1;
#X connect 17 0 18 0;
#X connect 18 0 16 0;
#X connect 19 0 16 0;
#X restore 110 241 pd lossmodels;
#X obj 197 294 s packet-loss;
#X floatatom 197 273 5 0 0 0 - - -, f 5;
#X text 267 138 loss;
#X obj 44 300 bng 15 50 50 0 empty empty empty 17 7 0 10 -262144 -1
-1;
#X obj 44 272 route bang;
#X connect 0 0 11 0;
#X connect 2 0 11 2;
#X connect 3 0 11 1;
#X connect 4 0 1 0;
#X connect 4 0 1 1;
#X connect 5 0 11 3;
#X connect 6 0 11 3;
#X connect 7 0 11 3;
#X connect 8 0 11 3;
#X connect 9 0 11 3;
#X connect 10 0 11 3;
#X connect 11 0 4 0;
#X connect 11 0 16 0;
#X connect 11 1 13 0;
#X connect 13 0 12 0;
#X connect 16 0 15 0;
