#N canvas 323 459 589 375 10;
#X msg 288 105 mode silk;
#X msg 288 81 mode hybrid;
#X msg 288 129 mode celt;
#X obj 288 154 tgl 15 1 empty empty empty 17 7 0 10 -262144 -1 -1 1
1;
#X msg 288 48 status;
#X msg 288 262 bitrate 12000;
#X msg 288 284 bitrate 4000;
#X obj 288 202 s enc-opts;
#X msg 288 176 dtx \$1;
#X obj 385 52 tgl 15 1 empty empty empty 17 7 0 10 -262144 -1 -1 1
1;
#X msg 385 74 fec \$1;
#X obj 288 329 s enc-opts;
#X obj 56 262 tgl 50 0 empty empty empty 17 7 0 10 -262144 -1 -1 0
1;
#X msg 56 322 \; pd dsp \$1;
#X obj 73 100 r enc-opts;
#X obj 250 119 vsl 15 128 127 0 0 0 empty empty empty 0 -9 0 10 -262144
-1 -1 10700 1;
#X obj 57 225 s opus-packet;
#X obj 57 65 readsf~;
#X msg 57 23 open ../doc/sound/voice.wav \, 1;
#X floatatom 70 188 7 0 0 0 - - -, f 7;
#X floatatom 156 188 7 0 0 0 - - -, f 7;
#X obj 70 165 bitrate 400;
#X obj 156 165 bitrate 2000;
#X text 116 188 bps;
#X text 202 188 bps;
#X msg 385 173 loss \$1;
#X obj 388 135 hsl 101 15 0 100 0 0 empty empty empty -2 -8 0 10 -262144
-1 -1 0 1;
#X floatatom 385 155 5 0 0 0 - - -, f 5;
#X msg 379 262 bitrate 16000;
#X obj 156 221 list length;
#X obj 156 243 average 400;
#X floatatom 156 265 5 0 0 0 - - -, f 5;
#X msg 379 239 bitrate 32000;
#X msg 288 239 bitrate 24000;
#X msg 379 284 bitrate 8000;
#X obj 57 124 opusenc~ 60;
#X text 190 265 Bytes;
#X obj 448 98 spigot;
#X obj 481 76 tgl 15 0 empty empty feedback 17 7 0 10 -262144 -1 -1
1 1;
#X obj 448 51 r packet-loss;
#X connect 0 0 7 0;
#X connect 1 0 7 0;
#X connect 2 0 7 0;
#X connect 3 0 8 0;
#X connect 4 0 7 0;
#X connect 5 0 11 0;
#X connect 6 0 11 0;
#X connect 8 0 7 0;
#X connect 9 0 10 0;
#X connect 10 0 7 0;
#X connect 12 0 13 0;
#X connect 14 0 35 0;
#X connect 17 0 35 0;
#X connect 17 1 18 0;
#X connect 18 0 17 0;
#X connect 21 0 19 0;
#X connect 22 0 20 0;
#X connect 25 0 7 0;
#X connect 26 0 27 0;
#X connect 27 0 25 0;
#X connect 28 0 11 0;
#X connect 29 0 30 0;
#X connect 30 0 31 0;
#X connect 32 0 11 0;
#X connect 33 0 11 0;
#X connect 34 0 11 0;
#X connect 35 0 16 0;
#X connect 35 0 21 0;
#X connect 35 0 22 0;
#X connect 35 0 29 0;
#X connect 35 1 15 0;
#X connect 37 0 26 0;
#X connect 38 0 37 1;
#X connect 39 0 37 0;
